<svg version="1.1" xmlns="http://www.w3.org/2000/svg" xmlns:xlink="http://www.w3.org/1999/xlink" width="500" height="500"><g data-paper-data="{&quot;description&quot;:&quot;Logo for ShibaCatify\n====================\n\nThis logo was generated by MarkMaker at http://emblemmatic.org/markmaker/ and may be composed of elements designed by others.\n\nThe font is Encode Sans designed by Impallari Type and released under the OFL license via Google Fonts: https://www.google.com/fonts/specimen/Encode%20Sans. The font includes this copyright statement: Copyright (c) 2012, Impallari Type (www.impallari.com), with Reserved Font Name Encode Sans.\n\nMarkMaker uses semantic data from the Princeton University WordNet database http://wordnet.princeton.edu and font descriptions from Google Fonts https://www.google.com/fonts.&quot;}" fill="none" fill-rule="nonzero" stroke="none" stroke-width="none" stroke-linecap="butt" stroke-linejoin="miter" stroke-miterlimit="10" stroke-dasharray="" stroke-dashoffset="0" font-family="none" font-weight="none" font-size="none" text-anchor="none" style="mix-blend-mode: normal"><path d="M50,308.53706v-117.07412h400v117.07412z" fill="#89aeae" stroke-width="0"></path><g data-paper-data="{&quot;elementType&quot;:&quot;logo&quot;}" fill="#ffffff" stroke-width="1"><g data-paper-data="{&quot;elementType&quot;:&quot;text&quot;}"><g data-paper-data="{&quot;baseline&quot;:81.30000000000001,&quot;elementType&quot;:&quot;row&quot;}"><g data-paper-data="{&quot;baselineProportion&quot;:0.78702807357212,&quot;fontSize&quot;:100,&quot;baseline&quot;:81.30000000000001,&quot;elementType&quot;:&quot;word&quot;}"><path d="M94.75187,265.00512c-0.81329,0 -1.69163,-0.03253 -2.63505,-0.09759c-0.94341,-0.06506 -1.91122,-0.16266 -2.90343,-0.29278c-0.99221,-0.13013 -1.99255,-0.29278 -3.00102,-0.48797c-1.00847,-0.19519 -1.96815,-0.40664 -2.87903,-0.63436v-3.70858c1.95189,0.48797 3.92004,0.87022 5.90446,1.14673c1.98442,0.27652 3.74111,0.41478 5.27009,0.41478c2.83023,0 4.98544,-0.5205 6.46562,-1.56151c1.48018,-1.04101 2.22027,-2.53745 2.22027,-4.48934c0,-1.10607 -0.21145,-2.04135 -0.63436,-2.80584c-0.42291,-0.76449 -1.00034,-1.41512 -1.7323,-1.95189c-0.73196,-0.53677 -1.61844,-0.99221 -2.65944,-1.36632c-1.04101,-0.37411 -2.16334,-0.72382 -3.367,-1.04914c-1.91935,-0.5205 -3.56219,-1.0898 -4.92851,-1.7079c-1.36632,-0.6181 -2.48865,-1.34192 -3.367,-2.17147c-0.87835,-0.82955 -1.52898,-1.78923 -1.95189,-2.87903c-0.42291,-1.0898 -0.63436,-2.3504 -0.63436,-3.78178c0,-1.49645 0.29278,-2.86277 0.87835,-4.09896c0.58557,-1.23619 1.42325,-2.28533 2.51305,-3.14742c1.0898,-0.86208 2.39919,-1.52898 3.92817,-2.00068c1.52898,-0.47171 3.25314,-0.70756 5.1725,-0.70756c1.36632,0 2.8221,0.10573 4.36734,0.31718c1.54524,0.21145 3.27754,0.52864 5.1969,0.95154l-0.14639,3.65979c-1.56151,-0.42291 -3.13928,-0.74009 -4.73332,-0.95154c-1.59404,-0.21145 -3.04169,-0.31718 -4.34295,-0.31718c-2.56998,0 -4.59506,0.55303 -6.07525,1.6591c-1.48018,1.10607 -2.22027,2.61878 -2.22027,4.53813c0,0.91088 0.14639,1.7079 0.43917,2.39106c0.29278,0.68316 0.76449,1.29312 1.41512,1.82989c0.65063,0.53677 1.49645,1.03287 2.53745,1.48831c1.04101,0.45544 2.326,0.89461 3.85497,1.31752c1.59404,0.45544 3.06609,0.94341 4.41614,1.46391c1.35005,0.5205 2.51305,1.17926 3.489,1.97628c0.97594,0.79702 1.7323,1.76483 2.26907,2.90343c0.53677,1.1386 0.80515,2.53745 0.80515,4.19655c0,3.22061 -1.10607,5.68487 -3.31821,7.39277c-2.21214,1.7079 -5.41648,2.56185 -9.61304,2.56185z" data-paper-data="{&quot;elementType&quot;:&quot;letter&quot;,&quot;baseline&quot;:75.5,&quot;baselineProportion&quot;:0.9856396866840732,&quot;fontSize&quot;:100}"></path><path d="M121.15112,225.04026h4.24535v16.10306c2.50492,-1.20366 4.61133,-2.09014 6.31923,-2.65944c1.7079,-0.5693 3.31007,-0.85395 4.80652,-0.85395c2.24467,0 3.9607,0.5937 5.1481,1.7811c1.1874,1.1874 1.7811,3.00102 1.7811,5.44088v19.61645h-4.29415v-18.20134c0,-1.82176 -0.34158,-3.11488 -1.02474,-3.87937c-0.68316,-0.76449 -1.7567,-1.14673 -3.22061,-1.14673c-1.23619,0 -2.66758,0.26025 -4.29415,0.78075c-1.62657,0.5205 -3.367,1.21993 -5.2213,2.09828v20.34841h-4.24535z" data-paper-data="{&quot;elementType&quot;:&quot;letter&quot;,&quot;baseline&quot;:80.80000000000001,&quot;baselineProportion&quot;:1,&quot;fontSize&quot;:100}"></path><path d="M158.62734,238.11789h4.24535v26.35046h-4.24535zM160.72561,232.65261c-1.7567,0 -2.63505,-0.86208 -2.63505,-2.58625c0,-1.7567 0.87835,-2.63505 2.63505,-2.63505c1.82176,0 2.73264,0.87835 2.73264,2.63505c0,1.72417 -0.91088,2.58625 -2.73264,2.58625" data-paper-data="{&quot;elementType&quot;:&quot;letter&quot;,&quot;baseline&quot;:75.9,&quot;baselineProportion&quot;:1,&quot;fontSize&quot;:100}"></path><path d="M188.58879,265.00512c-1.49645,0 -3.09049,-0.08946 -4.78212,-0.26838c-1.69163,-0.17892 -3.56219,-0.46357 -5.61167,-0.85395v-38.84253h4.29415v16.00547c0.97594,-1.10607 2.15521,-1.95189 3.53779,-2.53745c1.38259,-0.58557 2.96849,-0.87835 4.75772,-0.87835c3.54593,0 6.24604,1.0898 8.10033,3.26941c1.85429,2.17961 2.78144,5.54661 2.78144,10.10101c0,4.5544 -1.1386,8.01087 -3.4158,10.36939c-2.2772,2.35853 -5.49781,3.57032 -9.66184,3.63539M188.53999,261.73571c2.96036,0 5.16437,-0.80515 6.61201,-2.41546c1.44765,-1.61031 2.17147,-4.30228 2.17147,-8.07593c0,-3.64352 -0.60183,-6.2379 -1.80549,-7.78315c-1.20366,-1.54524 -3.10675,-2.31786 -5.70927,-2.31786c-0.97594,0 -1.90309,0.13013 -2.78144,0.39038c-0.87835,0.26025 -1.65097,0.62623 -2.31786,1.09794c-0.66689,0.47171 -1.20366,1.05727 -1.61031,1.7567c-0.40664,0.69943 -0.60996,1.48831 -0.60996,2.36666v14.49275c0.81329,0.13013 1.74043,0.24399 2.78144,0.34158c1.04101,0.09759 2.13081,0.14639 3.26941,0.14639z" data-paper-data="{&quot;elementType&quot;:&quot;letter&quot;,&quot;baseline&quot;:80.80000000000001,&quot;baselineProportion&quot;:0.9865689865689866,&quot;fontSize&quot;:100}"></path><path d="M220.8437,264.71234c-2.2772,0 -4.01763,-0.5937 -5.2213,-1.7811c-1.20366,-1.1874 -1.80549,-2.90343 -1.80549,-5.1481c0,-2.53745 0.79702,-4.47307 2.39106,-5.80686c1.59404,-1.33379 4.14776,-2.13081 7.66115,-2.39106l6.29483,-0.48797v-1.90309c0,-1.1386 -0.10573,-2.09014 -0.31718,-2.85463c-0.21145,-0.76449 -0.5693,-1.38259 -1.07354,-1.85429c-0.50424,-0.47171 -1.17926,-0.80515 -2.02508,-1.00034c-0.84582,-0.19519 -1.90309,-0.29278 -3.17181,-0.29278c-1.10607,0 -2.3016,0.06506 -3.58659,0.19519c-1.28499,0.13013 -2.67571,0.34158 -4.17216,0.63436l-0.34158,-3.26941c1.72417,-0.32531 3.29381,-0.56117 4.70892,-0.70756c1.41512,-0.14639 2.83837,-0.21959 4.26975,-0.21959c3.4158,0 5.93699,0.69943 7.56356,2.09828c1.62657,1.39885 2.43986,3.57846 2.43986,6.53882v18.00615h-3.56219l-0.43917,-3.31821h-0.29278c-1.59404,1.1386 -3.15555,2.01695 -4.68453,2.63505c-1.52898,0.6181 -3.07422,0.92715 -4.63573,0.92715M222.40521,261.39413c1.17113,0 2.43172,-0.27652 3.78178,-0.82955c1.35005,-0.55303 2.67571,-1.25246 3.97697,-2.09828v-6.63641l-5.1237,0.43917c-2.53745,0.22772 -4.31855,0.72382 -5.34329,1.48831c-1.02474,0.76449 -1.53711,1.99255 -1.53711,3.68418c0,2.63505 1.41512,3.95257 4.24535,3.95257z" data-paper-data="{&quot;elementType&quot;:&quot;letter&quot;,&quot;baseline&quot;:54.6,&quot;baselineProportion&quot;:0.9909255898366606,&quot;fontSize&quot;:100}"></path><path d="M264.66354,264.90753c-10.89803,0 -16.34705,-6.13218 -16.34705,-18.39653c0,-6.3111 1.35005,-10.99562 4.05016,-14.05358c2.70011,-3.05795 6.7828,-4.58693 12.24808,-4.58693c1.10607,0 2.36666,0.0732 3.78178,0.21959c1.41512,0.14639 2.83837,0.34971 4.26975,0.60996v3.70858c-1.56151,-0.26025 -2.96849,-0.45544 -4.22095,-0.58557c-1.25246,-0.13013 -2.36666,-0.19519 -3.3426,-0.19519c-4.26162,0 -7.38464,1.17926 -9.36905,3.53779c-1.98442,2.35853 -2.97663,6.12404 -2.97663,11.29654c0,5.0749 0.96781,8.79975 2.90343,11.17455c1.93562,2.37479 4.96918,3.56219 9.10067,3.56219c0.5205,0 1.13047,-0.0244 1.82989,-0.0732c0.69943,-0.0488 1.41512,-0.11386 2.14707,-0.19519c0.73196,-0.08133 1.44765,-0.17892 2.14707,-0.29278c0.69943,-0.11386 1.29312,-0.23585 1.7811,-0.36598v3.65979c-1.1386,0.26025 -2.45612,0.48797 -3.95257,0.68316c-1.49645,0.19519 -2.8465,0.29278 -4.05016,0.29278z" data-paper-data="{&quot;elementType&quot;:&quot;letter&quot;,&quot;baseline&quot;:75,&quot;baselineProportion&quot;:0.9881422924901185,&quot;fontSize&quot;:100}"></path><path d="M291.40438,264.71234c-2.2772,0 -4.01763,-0.5937 -5.2213,-1.7811c-1.20366,-1.1874 -1.80549,-2.90343 -1.80549,-5.1481c0,-2.53745 0.79702,-4.47307 2.39106,-5.80686c1.59404,-1.33379 4.14776,-2.13081 7.66115,-2.39106l6.29483,-0.48797v-1.90309c0,-1.1386 -0.10573,-2.09014 -0.31718,-2.85463c-0.21145,-0.76449 -0.5693,-1.38259 -1.07354,-1.85429c-0.50424,-0.47171 -1.17926,-0.80515 -2.02508,-1.00034c-0.84582,-0.19519 -1.90309,-0.29278 -3.17181,-0.29278c-1.10607,0 -2.3016,0.06506 -3.58659,0.19519c-1.28499,0.13013 -2.67571,0.34158 -4.17216,0.63436l-0.34158,-3.26941c1.72417,-0.32531 3.29381,-0.56117 4.70892,-0.70756c1.41512,-0.14639 2.83837,-0.21959 4.26975,-0.21959c3.4158,0 5.93699,0.69943 7.56356,2.09828c1.62657,1.39885 2.43986,3.57846 2.43986,6.53882v18.00615h-3.56219l-0.43917,-3.31821h-0.29278c-1.59404,1.1386 -3.15555,2.01695 -4.68453,2.63505c-1.52898,0.6181 -3.07422,0.92715 -4.63573,0.92715M292.96589,261.39413c1.17113,0 2.43172,-0.27652 3.78178,-0.82955c1.35005,-0.55303 2.67571,-1.25246 3.97697,-2.09828v-6.63641l-5.1237,0.43917c-2.53745,0.22772 -4.31855,0.72382 -5.34329,1.48831c-1.02474,0.76449 -1.53711,1.99255 -1.53711,3.68418c0,2.63505 1.41512,3.95257 4.24535,3.95257z" data-paper-data="{&quot;elementType&quot;:&quot;letter&quot;,&quot;baseline&quot;:54.6,&quot;baselineProportion&quot;:0.9909255898366606,&quot;fontSize&quot;:100}"></path><path d="M330.24691,264.90753c-2.50492,0 -4.39988,-0.63436 -5.68487,-1.90309c-1.28499,-1.26873 -1.92749,-3.12302 -1.92749,-5.56288v-15.56629h-5.46528v-3.75738h5.70927l0.63436,-6.58762l3.367,-0.43917v7.02679h7.80754v3.75738h-7.75875v14.68794c0,1.6591 0.36598,2.87903 1.09794,3.65979c0.73196,0.78075 1.87869,1.17113 3.4402,1.17113c0.48797,0 1.02474,-0.04066 1.61031,-0.12199c0.58557,-0.08133 1.20366,-0.21959 1.85429,-0.41478v3.4158c-0.74822,0.19519 -1.52898,0.34971 -2.34226,0.46357c-0.81329,0.11386 -1.59404,0.17079 -2.34226,0.17079z" data-paper-data="{&quot;elementType&quot;:&quot;letter&quot;,&quot;baseline&quot;:68.4,&quot;baselineProportion&quot;:0.9870129870129869,&quot;fontSize&quot;:100}"></path><path d="M347.5211,238.11789h4.24535v26.35046h-4.24535zM349.61938,232.65261c-1.7567,0 -2.63505,-0.86208 -2.63505,-2.58625c0,-1.7567 0.87835,-2.63505 2.63505,-2.63505c1.82176,0 2.73264,0.87835 2.73264,2.63505c0,1.72417 -0.91088,2.58625 -2.73264,2.58625" data-paper-data="{&quot;elementType&quot;:&quot;letter&quot;,&quot;baseline&quot;:75.9,&quot;baselineProportion&quot;:1,&quot;fontSize&quot;:100}"></path><path d="M369.919,241.82648h-5.66047v-3.70858h5.70927v-1.31752c0,-2.30973 0.18706,-4.22095 0.56117,-5.73367c0.37411,-1.51271 1.02474,-2.71637 1.95189,-3.61099c0.92715,-0.89461 2.17961,-1.53711 3.75738,-1.92749c1.57777,-0.39038 3.57032,-0.63436 5.97765,-0.73196l0.24399,3.22061c-1.69163,0.09759 -3.07422,0.27652 -4.14776,0.53677c-1.07354,0.26025 -1.91122,0.66689 -2.51305,1.21993c-0.60183,0.55303 -1.01661,1.30939 -1.24433,2.26907c-0.22772,0.95968 -0.34158,2.204 -0.34158,3.73298v2.34226h6.97799v3.70858h-6.97799v22.64188h-4.29415z" data-paper-data="{&quot;elementType&quot;:&quot;letter&quot;,&quot;baseline&quot;:81.30000000000001,&quot;baselineProportion&quot;:1,&quot;fontSize&quot;:100}"></path><path d="M397.343,274.47177l-0.0488,-0.43917l4.05016,-9.80823l-10.78417,-25.6185v-0.48797h4.58693l7.07559,17.95735l1.17113,3.70858h0.29278l1.17113,-3.70858l7.36837,-17.95735h4.44054v0.48797l-15.4199,36.59786z" data-paper-data="{&quot;elementType&quot;:&quot;letter&quot;,&quot;baseline&quot;:54,&quot;baselineProportion&quot;:0.7105263157894737,&quot;fontSize&quot;:100}"></path></g></g></g></g></g></svg>